<?xml version="1.0" standalone="no"?><!DOCTYPE svg PUBLIC "-//W3C//DTD SVG 1.1//EN" "http://www.w3.org/Graphics/SVG/1.1/DTD/svg11.dtd"><svg class="icon" width="81px" height="81.00px" viewBox="0 0 1024 1024" version="1.1" xmlns="http://www.w3.org/2000/svg"><path d="M0 0m170.666667 0l682.666666 0q170.666667 0 170.666667 170.666667l0 682.666666q0 170.666667-170.666667 170.666667l-682.666666 0q-170.666667 0-170.666667-170.666667l0-682.666666q0-170.666667 170.666667-170.666667Z" fill="#C9EFEA" /><path d="M623.274667 717.482667v86.016c0 27.392-18.773333 49.834667-41.671111 49.834666-22.926222 0-41.671111-22.471111-41.671112-49.834666v-86.016h83.342223z m-138.808889 0.056889v85.959111c0 27.392-18.773333 49.834667-41.699556 49.834666-22.897778 0-41.614222-22.471111-41.614222-49.834666v-85.902223l83.285333-0.056888z m-159.459556-318.606223v277.902223h0.170667c1.905778 23.438222 23.096889 42.097778 48.753778 42.097777h274.261333c25.656889 0 46.848-18.659556 48.782222-42.097777h0.142222v-277.902223H325.006222zM596.48 315.733333a16.412444 16.412444 0 0 1-16.298667-16.554666c0-9.159111 7.281778-16.583111 16.270223-16.583111 8.988444 0 16.270222 7.424 16.270222 16.583111a16.412444 16.412444 0 0 1-16.241778 16.554666z m-169.813333 0a16.412444 16.412444 0 0 1-16.270223-16.554666c0-9.159111 7.281778-16.583111 16.270223-16.583111 8.988444 0 16.270222 7.424 16.270222 16.583111A16.412444 16.412444 0 0 1 426.666667 315.733333z m176.412444-85.276444l26.737778-48.867556c2.161778-3.982222 1.507556-8.647111-1.422222-10.325333-2.958222-1.649778-7.196444 0.227556-9.386667 4.209778l-27.306667 49.976889a216.689778 216.689778 0 0 0-80.583111-15.246223c-29.070222 0-56.604444 5.575111-81.123555 15.502223l-27.477334-50.232889c-2.161778-3.982222-6.4-5.859556-9.358222-4.181334-2.929778 1.706667-3.584 6.314667-1.422222 10.325334l26.88 49.095111c-55.893333 26.737778-93.525333 76.942222-93.525333 134.485333 0 5.831111 0.426667 11.576889 1.137777 17.265778h369.777778c0.796444-5.688889 1.166222-11.406222 1.166222-17.265778 0-57.742222-37.859556-108.060444-94.037333-134.741333h-0.056889zM796.444444 601.088c0 27.392-18.744889 49.806222-41.642666 49.806222-22.926222 0-41.671111-22.385778-41.671111-49.834666v-163.100445c0-27.420444 18.744889-49.863111 41.671111-49.863111 22.897778 0 41.642667 22.471111 41.642666 49.863111v163.100445z m-485.603555 0c0 27.392-18.716444 49.806222-41.642667 49.806222-22.869333 0-41.642667-22.385778-41.642666-49.834666v-163.100445c0-27.420444 18.744889-49.863111 41.642666-49.863111 22.926222 0 41.642667 22.471111 41.642667 49.863111v163.100445z" fill="#13B706" /></svg>