<?xml version="1.0" standalone="no"?><!DOCTYPE svg PUBLIC "-//W3C//DTD SVG 1.1//EN" "http://www.w3.org/Graphics/SVG/1.1/DTD/svg11.dtd"><svg t="1767371139930" class="icon" viewBox="0 0 1024 1024" version="1.1" xmlns="http://www.w3.org/2000/svg" p-id="65997" xmlns:xlink="http://www.w3.org/1999/xlink" width="81" height="81"><path d="M128 42.666667h768a85.333333 85.333333 0 0 1 85.333333 85.333333v768a85.333333 85.333333 0 0 1-85.333333 85.333333H128a85.333333 85.333333 0 0 1-85.333333-85.333333V128a85.333333 85.333333 0 0 1 85.333333-85.333333z m172.373333 569.429333l-83.797333-83.669333 83.114667-78.506667a32 32 0 0 0-43.946667-46.506667l-107.050667 101.077334A32 32 0 0 0 148.053333 550.4l107.093334 106.965333a32 32 0 1 0 45.226666-45.226666z m402.346667 0a32 32 0 1 0 45.226667 45.269333l107.093333-106.965333a32 32 0 0 0-0.682667-45.909333l-107.093333-101.12a32 32 0 1 0-43.904 46.549333l83.114667 78.506667-83.754667 83.669333z m-137.6-285.184l-193.365333 382.976a32 32 0 0 0 57.173333 28.842667l193.28-382.976a32 32 0 0 0-57.088-28.842667z" fill="#7452BF" p-id="65998"></path></svg>