<?xml version="1.0" standalone="no"?><!DOCTYPE svg PUBLIC "-//W3C//DTD SVG 1.1//EN" "http://www.w3.org/Graphics/SVG/1.1/DTD/svg11.dtd"><svg class="icon" width="81px" height="81.00px" viewBox="0 0 1024 1024" version="1.1" xmlns="http://www.w3.org/2000/svg"><path d="M102.4 102.4m307.2 0l204.8 0q307.2 0 307.2 307.2l0 204.8q0 307.2-307.2 307.2l-204.8 0q-307.2 0-307.2-307.2l0-204.8q0-307.2 307.2-307.2Z" fill="#D57875" /><path d="M917.3504 358.4H819.2c-84.83328 0-153.6-68.76672-153.6-153.6V106.6496c128.64 21.5808 230.1696 123.1104 251.7504 251.7504z" fill="#BC5E5B" /><path d="M412.5696 729.6l-3.2256-3.584h26.7008v82.7904H313.6512v-50.176l-2.8672-3.584h101.7856v-25.4464z m-75.6224 66.8416h75.6224v-29.0304H336.9472v29.0304zM568.832 767.4112h-37.632l-0.1792 41.3952h-23.296v-41.3952H469.9136l-0.1792 41.3952h-23.296v-50.3552l-3.2256-3.4048h64.512l11.2896 10.752 12.1856-10.752h60.928v53.76H568.832zM602.7008 758.4512l-3.4048-3.4048h120.4224v92.4672a4.06016 4.06016 0 0 0-2.77504-2.78016 12.78976 12.78976 0 0 0-3.67616-0.62464H602.7008v-15.5904l5.7344 3.0464h87.9872v-22.7584H602.7008v-50.3552z m23.296 37.9904h70.4256v-29.0304h-70.4256v29.0304z" fill="#FFFFFF" /><path d="M659.74272 381.44512l-0.54784 0.29696A110.22336 110.22336 0 0 0 601.8048 478.73536c0 45.25568 27.02336 84.13184 65.65376 101.04832l-12.36992 36.46976c-14.21312 41.87648-59.67872 64.3072-101.5552 50.09408a80.07168 80.07168 0 0 1-35.95264-24.76544l-1.3312-1.65376c-27.8528 34.70336-78.56128 40.25344-113.26464 12.39552a80.57344 80.57344 0 0 1-25.856-36.9408l-39.168-115.4048c-18.86208-55.58784 10.9056-115.93728 66.49344-134.79936a106.28096 106.28096 0 0 1 110.3616 26.56768l1.4336 1.5104c37.72416-41.06752 100.33152-45.63456 143.488-11.81184z m-38.1952-128.42496l2.54464 0.01536c0.46592 34.40128-9.65632 62.06464-30.37184 82.99008-20.71552 20.92032-48.1024 31.15008-82.16064 30.67392-0.47104-34.40128 9.65632-62.05952 30.37184-82.98496 20.71552-20.92544 48.1024-31.15008 82.16064-30.67904z" fill="#FFFFFF" /></svg>