<?xml version="1.0" standalone="no"?><!DOCTYPE svg PUBLIC "-//W3C//DTD SVG 1.1//EN" "http://www.w3.org/Graphics/SVG/1.1/DTD/svg11.dtd"><svg class="icon" width="81px" height="81.00px" viewBox="0 0 1024 1024" version="1.1" xmlns="http://www.w3.org/2000/svg"><path d="M932.248101 989.414007H91.751899a4.791822 4.791822 0 0 1-4.738776-4.06686L0.053046 411.424782a4.791822 4.791822 0 0 1 4.738776-5.516784h1014.416356c2.935212 0 5.180826 2.616936 4.738776 5.516784l-86.960077 573.922365a4.791822 4.791822 0 0 1-4.738776 4.06686z" fill="#F7B563" /><path d="M954.828015 405.907998V136.57577a13.579776 13.579776 0 0 0-13.579776-13.579776H396.695676a13.509048 13.509048 0 0 1-11.634756-6.595386l-45.142147-75.236911a13.61514 13.61514 0 0 0-11.634756-6.595386H84.307777A13.61514 13.61514 0 0 0 70.728001 48.165769v357.742229h884.100014z" fill="#B5885B" /><path d="M123.774002 335.179997h778.008012v70.728001H123.774002z" fill="#FFFFFF" /><path d="M141.456002 282.133996h742.644012v53.046001H141.456002z" fill="#E7ECED" /><path d="M159.138002 229.087996h707.280012v53.046H159.138002z" fill="#C7CAC7" /><path d="M42.083161 688.820003l14.23401 93.944467 93.944467-93.944467z" fill="#424A60" /><path d="M200.266335 688.820003H150.261638l-93.944467 93.944467 6.577704 43.426993 9.707418 64.044205 201.433347-201.415665z" fill="#EFCE4A" /><path d="M324.040337 688.820003h-50.004697L72.602293 890.235668l1.626744 10.768338h129.078602l212.184003-212.184003z" fill="#424A60" /><path d="M465.496339 688.820003h-50.004697l-212.184003 212.184003h141.456002l212.184004-212.184003z" fill="#EFCE4A" /><path d="M606.952341 688.820003h-50.004696l-212.184004 212.184003h141.456003l212.184003-212.184003z" fill="#424A60" /><path d="M748.408344 688.820003h-50.004697l-212.184003 212.184003h141.456002l212.184003-212.184003z" fill="#EFCE4A" /><path d="M889.864346 688.820003h-50.004697l-212.184003 212.184003h141.456002l212.184003-212.184003z" fill="#424A60" /><path d="M981.315651 688.820003l-212.184003 212.184003h180.621633l23.34024-153.957176 8.823318-58.226827z" fill="#EFCE4A" /></svg>