<?xml version="1.0" standalone="no"?><!DOCTYPE svg PUBLIC "-//W3C//DTD SVG 1.1//EN" "http://www.w3.org/Graphics/SVG/1.1/DTD/svg11.dtd"><svg class="icon" width="81px" height="81.00px" viewBox="0 0 1024 1024" version="1.1" xmlns="http://www.w3.org/2000/svg"><path d="M662.8 0H199.1C136.3 0 85.3 50.9 85.3 113.8v796.4c0 62.8 50.9 113.8 113.8 113.8h625.8c62.8 0 113.8-50.9 113.8-113.8V316.1L662.8 0zM543.3 811.8h-58.9V600.6l-84.6 82.1-86.9-81.7v210.8h-54.4V503.5h54.2l87.1 97.6 91.4-97.6h52.2v308.3z m146.5 0l-65.7-113.7h40.8V497.8h49.8v200.3h40.8l-65.7 113.7z" fill="#41B3CE" /><path d="M938.7 452.5V316.1l-75-85.9-200.9 3.3z" fill="#328C9B" /><path d="M662.8 0v259.2c0 31.4 25.5 56.9 56.9 56.9h219L662.8 0z" fill="#8FD0DB" /></svg>