<?xml version="1.0" standalone="no"?><!DOCTYPE svg PUBLIC "-//W3C//DTD SVG 1.1//EN" "http://www.w3.org/Graphics/SVG/1.1/DTD/svg11.dtd"><svg class="icon" width="81px" height="81.00px" viewBox="0 0 1024 1024" version="1.1" xmlns="http://www.w3.org/2000/svg"><path d="M130.756923 0C117.76 0 103.896615 5.12 94.365538 15.36S78.769231 38.4 78.769231 51.2v921.6c0 12.8 5.198769 26.466462 15.596307 35.84 10.397538 10.24 23.394462 15.36 36.391385 15.36h762.486154c12.996923 0 26.860308-5.12 36.391385-15.36 10.397538-10.24 15.596308-23.04 15.596307-35.84V290.146462L650.633846 0H130.756923z" fill="#E83D1D" /><path d="M698.564923 288.807385a48.836923 48.836923 0 0 1-35.643077-15.281231 48.836923 48.836923 0 0 1-15.320615-35.682462L650.633846 0 945.230769 290.146462l-246.665846-1.339077z" fill="#FFB697" /><path d="M182.350769 416.452923V669.538462h41.472v-97.122462h62.739693c61.676308 0 92.514462-26.230154 92.514461-78.336 0-51.751385-30.838154-77.627077-91.805538-77.627077H182.350769z m41.472 35.446154h60.258462c18.077538 0 31.547077 3.190154 40.054154 9.924923 8.507077 6.380308 13.115077 17.014154 13.115077 32.256 0 15.241846-4.253538 26.230154-12.760616 32.964923-8.507077 6.380308-21.976615 9.924923-40.408615 9.924923h-60.258462v-85.070769zM414.523077 416.452923V669.538462h92.514461c41.117538 0 71.955692-11.342769 93.223385-34.028308 20.204308-21.622154 30.483692-52.460308 30.483692-92.514462 0-40.408615-10.279385-71.246769-30.483692-92.514461-21.267692-22.685538-52.105846-34.028308-93.223385-34.028308H414.523077z m41.472 35.446154h43.244308c31.547077 0 54.587077 7.089231 69.12 21.622154 14.178462 14.178462 21.267692 37.572923 21.267692 69.474461 0 31.192615-7.089231 54.232615-21.267692 69.12-14.532923 14.532923-37.572923 21.976615-69.12 21.976616H455.995077v-182.193231zM669.735385 416.452923V669.538462h41.472v-112.009847h123.707077v-35.446153h-123.707077v-70.183385h131.150769v-35.446154z" fill="#FFFFFF" /></svg>