<?xml version="1.0" standalone="no"?><!DOCTYPE svg PUBLIC "-//W3C//DTD SVG 1.1//EN" "http://www.w3.org/Graphics/SVG/1.1/DTD/svg11.dtd"><svg class="icon" width="81px" height="81.00px" viewBox="0 0 1024 1024" version="1.1" xmlns="http://www.w3.org/2000/svg"><path d="M554.711381 42.666667A467.626667 467.626667 0 0 0 85.378048 512L716.844715 674.133333z" fill="#ED6C47" /><path d="M554.711381 42.666667A470.698667 470.698667 0 0 1 1024.044715 512l-234.837334 123.562667L554.711381 512z" fill="#FF8F6B" /><path d="M85.378048 512a473.429333 473.429333 0 0 0 469.333333 469.333333A473.429333 473.429333 0 0 0 1024.044715 512z" fill="#D35230" /><path d="M640.044715 793.6V307.2a49.152 49.152 0 0 0-51.2-51.2H162.178048A473.770667 473.770667 0 0 0 85.378048 512a462.506667 462.506667 0 0 0 149.162667 341.333333H580.311381a64.170667 64.170667 0 0 0 59.733334-59.733333z" opacity=".5" /><path d="M640.044715 793.6V307.2a49.152 49.152 0 0 0-51.2-51.2H162.178048A473.770667 473.770667 0 0 0 85.378048 512a462.506667 462.506667 0 0 0 149.162667 341.333333H580.311381a64.170667 64.170667 0 0 0 59.733334-59.733333z" opacity=".1" /><path d="M546.178048 810.666667H51.244715a49.152 49.152 0 0 1-51.2-51.2V264.533333a49.152 49.152 0 0 1 51.2-51.2h499.370666a48.128 48.128 0 0 1 46.762667 51.2v499.029334a48.469333 48.469333 0 0 1-51.2 47.104z" fill="#C43E1C" /><path d="M315.778048 341.333333a145.408 145.408 0 0 1 93.866667 25.6 96.256 96.256 0 0 1 34.133333 80.896 123.221333 123.221333 0 0 1-17.066667 68.266667 104.106667 104.106667 0 0 1-46.762666 38.570667 177.493333 177.493333 0 0 1-68.266667 12.629333H247.511381V682.666667h-68.266666V341.333333z m-68.266667 170.666667h55.637334a68.266667 68.266667 0 0 0 51.2-17.066667 53.930667 53.930667 0 0 0 17.066666-47.104c0-38.229333-21.504-55.296-64.170666-55.296H247.511381z" fill="#FFFFFF" /></svg>