<?xml version="1.0" standalone="no"?><!DOCTYPE svg PUBLIC "-//W3C//DTD SVG 1.1//EN" "http://www.w3.org/Graphics/SVG/1.1/DTD/svg11.dtd"><svg class="icon" width="81px" height="81.00px" viewBox="0 0 1024 1024" version="1.1" xmlns="http://www.w3.org/2000/svg"><path d="M136.367104 1.391616c-12.772352 0-26.401792 5.10976-35.769344 15.328256-9.367552 10.220544-15.330304 22.99904-15.330304 35.770368v919.866368c0 12.772352 5.10976 26.401792 15.330304 35.769344 10.220544 10.220544 22.996992 15.330304 35.769344 15.330304h749.519872c12.772352 0 26.402816-5.10976 35.770368-15.330304 10.220544-10.220544 15.328256-22.996992 15.328256-35.769344V290.983936L647.411712 1.391616H136.367104z m0 0" fill="#2D8CF0" /><path d="M937.078784 290.977792H698.597376c-12.778496 0-26.402816-5.103616-35.770368-15.336448-10.230784-9.365504-15.335424-22.990848-15.335424-35.769344V1.391616l289.586176 289.59232v-0.006144z m0 0" fill="#97C6FF" /><path d="M210.802688 388.754432h98.671616l80.66048 299.150336 79.876096-299.150336h82.231296l79.87712 299.150336 80.66048-299.150336h98.671616l-136.26368 404.864h-83.003392l-80.66048-296.015872-81.447936 296.015872h-83.01056L210.802688 388.754432z m0 0" fill="#FFFFFF" /></svg>