<?xml version="1.0" standalone="no"?><!DOCTYPE svg PUBLIC "-//W3C//DTD SVG 1.1//EN" "http://www.w3.org/Graphics/SVG/1.1/DTD/svg11.dtd"><svg class="icon" width="81px" height="81.00px" viewBox="0 0 1024 1024" version="1.1" xmlns="http://www.w3.org/2000/svg"><path d="M0 0h1024v1024H0z" fill="#FF733C" /><path d="M512 853.3248c-188.5184 0-341.3248-152.832-341.3248-341.3248 0-188.5184 152.832-341.3248 341.3248-341.3248 188.5184 0 341.3248 152.832 341.3248 341.3248 0 188.5184-152.832 341.3248-341.3248 341.3248z m-16-338.4832c0-21.3248-32-21.3248-32 0v130.8416c0 21.3504 32 21.3504 32 0v-130.816zM410.6752 384c0-21.3248-32-21.3248-32 0v261.6832c0 21.3504 32 21.3504 32 0V384z m170.6496 53.3248c0-21.3248-32-21.3248-32 0v208.384c0 21.3248 32 21.3248 32 0v-208.384z m85.3504 21.3504c0-21.3504-32-21.3504-32 0v187.008c0 21.3504 32 21.3504 32 0v-187.008z" fill="#FFFFFF" /></svg>