<?xml version="1.0" standalone="no"?><!DOCTYPE svg PUBLIC "-//W3C//DTD SVG 1.1//EN" "http://www.w3.org/Graphics/SVG/1.1/DTD/svg11.dtd"><svg t="1767416065029" class="icon" viewBox="0 0 1412 1024" version="1.1" xmlns="http://www.w3.org/2000/svg" p-id="6073" xmlns:xlink="http://www.w3.org/1999/xlink" width="111.69140625" height="81"><path d="M1412.413793 744.730483c0 74.081103-26.270897 145.125517-73.092414 197.490758C1292.535172 994.586483 1229.082483 1024 1162.910897 1024H289.544828C137.074759 1023.117241 11.052138 890.632828 0.706207 720.366345c-10.345931-170.266483 98.445241-320.617931 249.396965-344.699586 17.831724-194.206897 153.317517-348.830897 326.479449-372.524138 173.161931-23.728552 337.95531 89.688276 397.135448 273.372689 49.328552-46.609655 118.395586-56.920276 176.904828-26.306207 58.509241 30.578759 95.796966 96.467862 95.479172 168.748138a200.174345 200.174345 0 0 1-9.533793 60.027587c104.200828 36.016552 175.492414 143.642483 175.880827 265.745655z" fill="#FCD589" p-id="6074"></path><path d="M729.617655 397.594483a34.85131 34.85131 0 0 0-49.646345 2.612965l-139.475862 151.269518-2.365793 2.824827a42.619586 42.619586 0 0 0 2.401104 53.954207l2.612965 2.542345a34.85131 34.85131 0 0 0 49.681655-2.577655l76.305655-82.838069v281.776551c0 22.245517 16.595862 40.289103 37.005242 40.289104 20.44469 0 37.005241-18.008276 37.005241-40.253793v-281.811862l76.305655 82.838069 2.612966 2.577655a34.921931 34.921931 0 0 0 51.094069-3.813517c13.34731-15.889655 12.711724-40.430345-1.412414-55.507862l-139.440552-151.269518-2.683586-2.612965z" fill="#FFA800" p-id="6075"></path></svg>